{"title":"Devil Cam XviD(2010)-HoGz","uid":5843033,"size":841460123,"categoryP":"video","categoryS":"movies","magnet":"?xt=urn:btih:eabb1e543dd6bdde5d22099cea9d214239a0e4a2&amp;dn=Devil+Cam+XviD%282010%29-HoGz&amp;tr=udp%3A%2F%2Ftracker.openbittorrent.com%3A80&amp;tr=udp%3A%2F%2Fopen.demonii.com%3A1337&amp;tr=udp%3A%2F%2Ftracker.coppersurfer.tk%3A6969&amp;tr=udp%3A%2F%2Fexodus.desync.com%3A6969","seeders":0,"leechers":0,"uploader":".BONE.","files":5,"time":1285045089,"description":"[size=3]\nFormat: AVI\nFormat/Info: Audio Video Interleave\nFile size: 791 MiB\nDuration: 1h 15mn\nOverall bit rate: 1 460 Kbps\nWriting library: VirtualDub build 30091/release\n\nVideo\n\nFormat: MPEG-4 Visual\nFormat profile: Advanced Simple@L5\nFormat settings, BVOP: Yes\nFormat settings, QPel: No\nFormat settings, GMC: No warppoints\nFormat settings, Matrix: Default (H.263)\nMuxing mode: Packed bitstream\nCodec ID: XVID\nCodec ID/Hint: XviD\nDuration: 1h 15mn\nBit rate: 1 288 Kbps\nWidth: 704 pixels\nHeight: 320 pixels\nDisplay aspect ratio: 2.2:1\nFrame rate: 30.000 fps\nColor space: YUV\nChroma subsampling: 4:2:0\nBit depth: 8 bits\nScan type: Progressive\nBits/(Pixel*Frame): 0.191\nStream size: 698 MiB (88%)\nWriting library: XviD 1.2.1 (UTC 2008-12-04)\n\nAudio\n\nFormat: MPEG Audio\nFormat version: Version 2\nFormat profile: Layer 3\nMode: Joint stereo\nMode extension: MS Stereo\nCodec ID: 55\nCodec ID/Hint: MP3\nDuration: 1h 15mn\nBit rate mode: Constant\nBit rate: 160 Kbps\nChannel(s): 2 channels\nSampling rate: 22.05 KHz\nStream size: 86.7 MiB (11%)\nAlignment: Split accross interleaves\nInterleave, duration: 33 ms (1.00 video frame)\nInterleave, preload duration: 500 ms\nWriting library: LAME3.98r\n\nIMDB http://www.imdb.com/title/tt1314655/\n\nCAST\n\nChris Messina ... Detective Bowden\nLogan Marshall-Green ... Mechanic\nJenny O'Hara ... Old Woman\nBojana Novakovic ... Young Woman\nBokeem Woodbine ... Guard\nGeoffrey Arend ... Salesman\nJacob Vargas ... Ramirez\nMatt Craven ... Lustig\nJoshua Peace ... Detective Markowitz\nCaroline Dhavernas ... Elsa Nahai\nJoe Cobden ... Dwight\nZoie Palmer ... Cheryl\nVincent Laresca ... Henry\nRudy Webb ... Old Janitor\nCraig Eldridge ... Donnelly\n\n\nPLOT\n\nA group of people trapped in an elevator realize that the devil is among them\n\nNote\n\nVideo: Our own source\nAudio: Our own source\nIts a cam...Take it or leave it\nEnjoy!","torrent":{"xt":"urn:btih:eabb1e543dd6bdde5d22099cea9d214239a0e4a2","amp;dn":"Devil+Cam+XviD%282010%29-HoGz","amp;tr":["udp%3A%2F%2Ftracker.openbittorrent.com%3A80","udp%3A%2F%2Fopen.demonii.com%3A1337","udp%3A%2F%2Ftracker.coppersurfer.tk%3A6969","udp%3A%2F%2Fexodus.desync.com%3A6969"],"infoHash":"eabb1e543dd6bdde5d22099cea9d214239a0e4a2","infoHashBuffer":{"type":"Buffer","data":[234,187,30,84,61,214,189,222,93,34,9,156,234,157,33,66,57,160,228,162]},"announce":[],"urlList":[]}}